<?xml version="1.0" encoding="UTF-8"?>
<svg id="Calque_2" data-name="Calque 2" xmlns="http://www.w3.org/2000/svg" viewBox="0 0 120.9 113.02">
  <defs>
    <style>
      .cls-1 {
        fill: #da4167;
        stroke-width: 0px;
      }
    </style>
  </defs>
  <g id="Calque_1-2" data-name="Calque 1">
    <g>
      <path class="cls-1" d="M114.99,80.08c-7.39,8.75-18.47,9.14-22.68,8.94-.99-.05-1.91.54-2.28,1.46-.48,1.18-1.05,2.63-1.65,4.31-1.5,4.16-1.57,5.74-2.26,7.04-3.37,6.26-9.89,10.38-17.34,11.08-10.84.99-19.25-4.42-23.4-15.28-.04-.1-.07-.2-.09-.3-.5-1.94-1.01-3.89-1.51-5.84-.37-1.45-1.99-2.17-3.33-1.52-3.41,1.67-9.18,3.69-16.11,2.69-6.49-.95-10.88-4.07-12.68-5.42C2.14,80.07-1.57,70.36.61,58.72c.59-3.19,1.83-9.5,6.87-14.2,1.65-1.52,2.45-1.73,13.53-7.69,1.89-1.01,3.53-1.9,4.85-2.62.85-.46,1.34-1.4,1.2-2.36-1.86-13.09,3.37-24.98,12.39-29.53,4.22-2.15,12.04-3.5,18.31-.86.7.3,1,.66,8.81,7.07.16.14,2.86,2.35,4.3,3.53.56.45,1.29.63,1.99.48,1.5-.33,3.48-.76,5.78-1.27,9.24-2.06,9.62-2.36,11.08-2.23,4.62.39,9.08,2.48,13.06,6.13,3.45,3.18,5.68,6.79,6.69,10.69.66,2.54.09,6.09-.8,13.12-.23,1.77-.46,3.34-.65,4.62-.15.95.29,1.89,1.13,2.38,3.05,1.77,9.99,6.73,11.48,15.76,1.61,9.75-4.36,16.83-5.64,18.34Z"/>
      <path class="cls-1" d="M114.99,80.08c-7.39,8.75-18.47,9.14-22.68,8.94-.99-.05-1.91.54-2.28,1.46-.48,1.18-1.05,2.63-1.65,4.31-1.5,4.16-1.57,5.74-2.26,7.04-3.37,6.26-9.89,10.38-17.34,11.08-10.84.99-19.25-4.42-23.4-15.28-.04-.1-.07-.2-.09-.3-.5-1.94-1.01-3.89-1.51-5.84-.37-1.45-1.99-2.17-3.33-1.52-3.41,1.67-9.18,3.69-16.11,2.69-6.49-.95-10.88-4.07-12.68-5.42C2.14,80.07-1.57,70.36.61,58.72c.59-3.19,1.83-9.5,6.87-14.2,1.65-1.52,2.45-1.73,13.53-7.69,1.89-1.01,3.53-1.9,4.85-2.62.85-.46,1.34-1.4,1.2-2.36-1.86-13.09,3.37-24.98,12.39-29.53,4.22-2.15,12.04-3.5,18.31-.86.7.3,1,.66,8.81,7.07.16.14,2.86,2.35,4.3,3.53.56.45,1.29.63,1.99.48,1.5-.33,3.48-.76,5.78-1.27,9.24-2.06,9.62-2.36,11.08-2.23,4.62.39,9.08,2.48,13.06,6.13,3.45,3.18,5.68,6.79,6.69,10.69.66,2.54.09,6.09-.8,13.12-.23,1.77-.46,3.34-.65,4.62-.15.95.29,1.89,1.13,2.38,3.05,1.77,9.99,6.73,11.48,15.76,1.61,9.75-4.36,16.83-5.64,18.34Z"/>
    </g>
  </g>
</svg>