<?xml version="1.0" encoding="UTF-8"?>
<svg id="Calque_2" data-name="Calque 2" xmlns="http://www.w3.org/2000/svg" viewBox="0 0 1131 539.24">
  <defs>
    <style>
      .cls-1 {
        fill: #fff5cd;
      }

      .cls-1, .cls-2 {
        stroke-width: 0px;
      }

      .cls-2 {
        fill: #cd1e00;
      }
    </style>
  </defs>
  <g id="Calque_1-2" data-name="Calque 1">
    <g>
      <path class="cls-1" d="M140.25,539.24c-24.87,0-46.38-17.88-51.15-42.03-6.62-3.09-13.01-6.63-19.05-10.56-14.69-9.56-27.42-21.41-37.83-35.22-10.25-13.54-18.28-29.04-23.88-46.04-5.53-16.8-8.34-34.94-8.34-53.9,0-22.91,4.03-44.44,11.98-64,5.02-12.32,11.4-23.77,19.01-34.14C11.73,245.04-.72,225.78.03,204.29L5.38,51.14C6.35,23.26,28.96,1.43,56.86,1.43c.65,0,1.31,0,1.98.04l26.61.92c5.96.22,11.75,1.44,17.26,3.63,9.84-2.97,20.59-4.48,31.98-4.48,1.54,0,3.12.03,4.7.08,24.8.86,45.59,8.23,61.85,21.91,18.54-13.92,42.81-21.49,72.21-22.52,2.37-.07,4.59-.11,6.62-.11,23.56,0,44.02,4.68,60.9,13.93,9.44-8.58,21.89-13.43,34.73-13.43.57,0,1.13,0,1.7.02l26.9.94c5.96.22,11.75,1.44,17.25,3.63,9.83-2.97,20.58-4.48,31.96-4.48,1.51,0,3.03.03,4.57.07,24.7.86,45.39,8.13,61.61,21.61,18.19-13.73,41.95-21.19,70.7-22.2,2.29-.07,4.44-.11,6.41-.11,30.51,0,55.52,8,74.4,23.77,19.24-15.77,44.63-23.76,75.55-23.76,2.18,0,4.41.04,6.62.12,22.63.79,42.34,5.51,58.65,14.03,8.43-6.23,18.41-9.7,29.06-10.07l19.39-.68c.68-.02,1.25-.03,1.84-.03,6.9,0,13.59,1.33,19.92,3.97,7.57-3.15,16-5.41,25.1-6.73,3.63-.52,7.52-.96,11.59-1.31,1.33-.12,2.84-.19,4.46-.19,6.96,0,13.95,1.42,20.35,4.12,5.37-1.8,10.96-2.71,16.64-2.71.58,0,1.16.01,1.74.03l19.49.68c6.83.24,13.4,1.77,19.58,4.55,5.62-2.03,11.54-3.43,17.62-4.17,4.82-.59,9.87-.88,15.02-.88,1.58,0,3.19.03,4.81.08,40.13,1.41,61.95,21.02,73.18,37.22,14.01,20.2,20.25,46.43,19.07,80.18l-2.08,59.55c-.41,11.59-4.54,22.53-11.74,31.3,8.92,9.64,13.95,22.28,13.95,35.41v42.8c0,28.75-23.38,52.13-52.12,52.13h-11.26v117c0,28.74-23.39,52.13-52.13,52.13h-42.8c-28.74,0-52.12-23.39-52.12-52.13v-28.37c-1.34,5.5-3.05,10.81-5.13,15.9-6.25,15.26-15.8,28.4-28.36,39.04-11.87,10.02-26.39,17.64-43.18,22.64-15.24,4.52-32.7,6.81-51.9,6.81-9.37,0-19.23-.53-29.32-1.57-9.53-.98-19.03-2.26-28.22-3.8-9.13-1.53-18.05-3.27-26.53-5.15-4.3-.98-8.37-1.94-12.14-2.88-8.85,6.36-19.56,9.84-30.42,9.84h-149.23c-15.77,0-30.56-7.14-40.45-19.32-6.3,4.01-13.04,7.46-20.09,10.29-14.92,5.99-31.34,9.03-48.81,9.03h-26.44c-17.34,0-33.72-3.03-48.68-9.01-15.31-6.12-28.77-14.91-40-26.14-3.65-3.65-7.08-7.59-10.24-11.76-8.33,8.99-17.78,16.96-28.15,23.75-6.05,3.95-12.46,7.52-19.09,10.62-4.76,24.15-26.27,42.04-51.14,42.04h-42.8ZM909.31,340.28c3.36,5.49,6.1,11.25,8.2,17.2,1.18,3.36,2.2,6.79,3.07,10.28v-27.48s-11.15,0-11.27,0Z"/>
      <path class="cls-1" d="M140.25,534.24c-23.73,0-43.42-17.63-46.66-40.48-7.26-3.24-14.23-7.03-20.81-11.3-14.2-9.24-26.5-20.69-36.56-34.04-9.92-13.11-17.7-28.12-23.13-44.59-5.37-16.3-8.09-33.91-8.09-52.34,0-22.26,3.91-43.16,11.61-62.11,5.77-14.15,13.33-27.02,22.54-38.44-20.28-5.59-34.89-24.55-34.12-46.47L10.38,51.31C11.25,26.15,31.67,6.43,56.86,6.43c.56,0,1.14,0,1.72.03l26.69.92c5.94.22,11.79,1.57,17.18,3.95,9.83-3.19,20.65-4.8,32.23-4.8,1.47,0,3,.03,4.52.08,30.09,1.04,49.62,12.08,61.84,23.42,18.08-14.9,42.43-22.98,72.57-24.03,2.32-.07,4.47-.1,6.45-.1,24.28,0,44.98,5.09,61.69,15.15,8.67-9.21,20.94-14.65,33.94-14.65.53,0,1.04,0,1.57.02l26.86.94c5.94.21,11.79,1.57,17.18,3.95,9.82-3.18,20.64-4.8,32.22-4.8,1.47,0,2.95.03,4.44.06,29.94,1.05,49.39,11.92,61.58,23.11,17.73-14.7,41.57-22.67,71.03-23.7,2.24-.07,4.32-.1,6.24-.1,30.68,0,55.48,8.34,73.7,24.78.22.2.45.41.67.61,18.67-16.85,44.08-25.38,75.58-25.38,2.12,0,4.29.04,6.44.12,23.25.81,43.17,5.85,59.34,15,8.03-6.79,18.04-10.67,28.72-11.05l19.39-.68c.6-.02,1.13-.03,1.67-.03,6.9,0,13.69,1.52,19.9,4.42.24-.11.47-.21.71-.32,7.49-3.27,15.93-5.59,25.12-6.92,3.53-.51,7.33-.94,11.29-1.27,1.21-.11,2.56-.17,4.03-.17,7.01,0,13.88,1.55,20.14,4.5,5.35-2.03,11.09-3.09,16.85-3.09.53,0,1.06.01,1.59.03l19.46.68c6.83.24,13.48,1.95,19.52,4.98,5.85-2.31,12.03-3.86,18.44-4.63,4.62-.56,9.47-.85,14.42-.85,1.52,0,3.08.03,4.64.08,38.06,1.34,58.66,19.81,69.25,35.07,13.37,19.28,19.32,44.52,18.18,77.16l-2.08,59.55c-.43,12.22-5.41,23.42-13.66,31.67,9.86,8.8,15.87,21.58,15.87,35.21v42.8c0,25.99-21.14,47.13-47.12,47.13h-16.26v122c0,25.99-21.14,47.13-47.13,47.13h-42.8c-25.98,0-47.12-21.14-47.12-47.13v-122h-15.92c-2.96,0-5.9-.28-8.79-.83-.31.31-.62.62-.94.93,5.59,7.38,9.9,15.33,12.87,23.75,4.23,12.06,6.37,25.05,6.37,38.62,0,16.43-2.81,31.62-8.34,45.15-5.94,14.51-15.02,27-26.97,37.12-11.34,9.57-25.25,16.86-41.38,21.67-14.77,4.38-31.75,6.6-50.47,6.6-9.2,0-18.89-.52-28.81-1.54-9.43-.97-18.82-2.24-27.91-3.75-9.04-1.52-17.87-3.23-26.27-5.1-4.55-1.03-8.84-2.05-12.77-3.04-.51-.13-1.02-.27-1.53-.42-8.3,6.61-18.68,10.3-29.35,10.3h-149.23c-15.98,0-30.67-8.24-39.26-21.12-7.13,4.97-14.87,9.13-23.14,12.45-14.32,5.75-30.12,8.67-46.95,8.67h-26.44c-16.7,0-32.45-2.91-46.83-8.66-14.68-5.86-27.58-14.29-38.32-25.04-4.94-4.94-9.4-10.36-13.36-16.23-9.01,10.59-19.52,19.85-31.31,27.57-6.59,4.3-13.57,8.11-20.83,11.36-3.24,22.85-22.93,40.48-46.65,40.48h-42.8Z"/>
      <path class="cls-2" d="M1115.99,245.36v42.8c0,20.47-16.65,37.13-37.12,37.13h-26.26v132c0,20.47-16.66,37.13-37.13,37.13h-42.8c-20.47,0-37.12-16.66-37.12-37.13v-132h-25.92c-4.31,0-8.46-.75-12.32-2.11-3.14,4.34-7.19,7.99-11.88,10.63,8.23,8.62,14.24,18.24,17.91,28.66,3.85,11,5.8,22.87,5.8,35.3,0,15.14-2.56,29.05-7.6,41.37-5.33,13.02-13.47,24.21-24.18,33.28-10.28,8.68-22.99,15.31-37.77,19.72-13.83,4.1-29.84,6.18-47.61,6.18-8.89,0-18.24-.5-27.78-1.49-9.19-.95-18.36-2.18-27.29-3.67-8.95-1.5-17.61-3.19-25.74-5-4.33-.99-8.53-1.98-12.51-2.98-2.17-.55-4.25-1.29-6.24-2.18-6.77,7.23-16.4,11.76-27.07,11.76h-149.23c-16.85,0-31.11-11.28-35.63-26.69-8.87,7.87-19.09,14.16-30.49,18.73-13.15,5.28-27.7,7.96-43.23,7.96h-26.44c-15.42,0-29.93-2.67-43.12-7.94-13.41-5.36-25.17-13.03-34.96-22.82-7.83-7.83-14.29-16.93-19.3-27.11-1.31,1.91-2.64,3.79-4.04,5.62-9.38,12.35-20.79,22.97-33.88,31.54-7.77,5.07-16.1,9.4-24.89,12.91v.17c0,20.47-16.65,37.13-37.12,37.13h-42.8c-20.47,0-37.13-16.66-37.13-37.13v-.17c-8.78-3.5-17.12-7.81-24.89-12.86-13.23-8.61-24.67-19.26-34.03-31.68-9.26-12.24-16.54-26.29-21.61-41.7-5.04-15.3-7.59-31.85-7.59-49.21,0-20.97,3.66-40.59,10.87-58.35,7.28-17.84,17.59-33.52,30.65-46.59,1.23-1.23,2.49-2.44,3.77-3.62l-10.05-.34c-20.12-.7-35.92-17.65-35.22-37.77l5.34-153.15c.69-19.75,16.72-35.23,36.49-35.23.42,0,.85,0,1.28.02l26.79.92c6.13.22,11.86,1.95,16.84,4.8,9.83-3.76,20.83-5.64,32.92-5.64,1.37,0,2.76.02,4.17.07,32.7,1.13,51.42,14.98,61.74,27.48,16.74-17.51,41.42-26.97,73.37-28.09,2.06-.06,4.1-.1,6.1-.1,26.29,0,47.76,6.32,63.95,18.78,6.28-10.97,18.1-18.28,31.68-18.28.43,0,.85,0,1.28.01l26.8.94c6.12.22,11.85,1.93,16.84,4.8,9.82-3.76,20.81-5.64,32.91-5.64,1.38,0,2.77.02,4.17.06,32.41,1.13,51.1,14.74,61.45,27.16,16.39-17.3,40.52-26.65,71.77-27.75,1.97-.06,3.95-.1,5.89-.1,28.14,0,50.68,7.48,67,22.2,2.6,2.35,5.04,4.88,7.3,7.55,1.92-2.23,3.97-4.35,6.13-6.35,16.81-15.52,40.2-23.39,69.52-23.39,1.98,0,4.03.04,6.07.11,25,.87,45.48,6.84,61.19,17.73.54-.69,1.11-1.35,1.71-1.99,6.77-7.25,15.95-11.44,25.86-11.79l19.4-.68c.44-.01.87-.02,1.32-.02,7.06,0,13.87,2.02,19.69,5.68,1.61-.87,3.26-1.68,4.96-2.43,6.61-2.88,14.19-4.96,22.51-6.17,3.33-.48,6.92-.89,10.7-1.21,1.06-.1,2.13-.14,3.19-.14,7.22,0,13.98,2.06,19.7,5.64,5.16-2.7,11.03-4.22,17.29-4.22.43,0,.86.01,1.29.02l19.41.68c6.98.25,13.62,2.43,19.26,6.18.26-.14.52-.26.78-.38,6.02-2.82,12.57-4.68,19.48-5.52,4.25-.52,8.69-.78,13.21-.78,1.42,0,2.84.02,4.3.07,33.9,1.19,52.08,17.39,61.37,30.78,12.09,17.44,17.46,40.69,16.4,71.11l-2.08,59.54c-.52,14.61-9.27,26.91-21.74,32.54,13.98,5.32,23.94,18.87,23.94,34.69Z"/>
      <path class="cls-1" d="M274.42,302.43c-6.05-14.85-14.43-27.67-25.17-38.46-10.73-10.79-23.55-19.17-38.46-25.17-14.91-5.99-31.29-8.98-49.15-8.98s-34.09,2.99-49.05,8.98c-14.98,6-27.86,14.38-38.65,25.17s-19.2,23.61-25.25,38.46c-6.05,14.86-9.06,31.22-9.06,49.06,0,14.8,2.12,28.65,6.35,41.52,4.24,12.88,10.2,24.41,17.88,34.57,7.67,10.17,16.95,18.79,27.78,25.85,9.17,5.96,19.19,10.62,30.04,13.97,3.58,1.11,6.06,4.37,6.06,8.12v11.6c0,6.9,5.6,12.5,12.5,12.5h42.8c6.9,0,12.49-5.6,12.49-12.5v-11.6c0-3.74,2.48-7.01,6.06-8.12,10.85-3.35,20.84-8,29.96-13.97,10.78-7.06,20.05-15.68,27.78-25.85,7.73-10.16,13.69-21.69,17.88-34.57,4.17-12.87,6.27-26.71,6.27-41.52,0-17.84-3.02-34.2-9.06-49.06ZM228.72,380.34c-9.1,10.78-22.75,11.26-27.93,11.01-1.22-.06-2.35.67-2.81,1.8-.59,1.45-1.29,3.24-2.03,5.31-1.85,5.12-1.93,7.07-2.78,8.67-4.15,7.71-12.18,12.78-21.35,13.65-13.35,1.22-23.71-5.44-28.82-18.82-.05-.12-.09-.25-.11-.37-.62-2.39-1.24-4.79-1.86-7.19-.46-1.79-2.45-2.67-4.1-1.87-4.2,2.06-11.31,4.54-19.84,3.31-7.99-1.17-13.4-5.01-15.62-6.67-11.72-8.83-16.29-20.79-13.61-35.12.73-3.93,2.25-11.7,8.46-17.49,2.03-1.87,3.02-2.13,16.66-9.47,2.33-1.24,4.35-2.34,5.97-3.23,1.05-.57,1.65-1.72,1.48-2.91-2.29-16.12,4.15-30.76,15.26-36.37,5.2-2.65,14.83-4.31,22.55-1.06.86.37,1.23.81,10.85,8.71.2.17,3.52,2.89,5.3,4.35.69.55,1.59.78,2.45.59,1.85-.41,4.29-.94,7.12-1.56,11.38-2.54,11.85-2.91,13.65-2.75,5.69.48,11.18,3.05,16.08,7.55,4.25,3.92,7,8.36,8.24,13.17.81,3.13.11,7.5-.99,16.16-.28,2.18-.57,4.11-.8,5.69-.18,1.17.36,2.33,1.39,2.93,3.76,2.18,12.3,8.29,14.14,19.41,1.98,12.01-5.37,20.73-6.95,22.59Z"/>
      <path class="cls-1" d="M77.89,218.91l-26.79-.94c-6.56-.23-11.69-5.73-11.46-12.29l5.35-153.15c.23-6.56,5.73-11.69,12.29-11.46l26.79.94c6.56.23,11.69,5.73,11.46,12.29h0c10.45-9.33,24.6-13.69,42.46-13.07,20.47.71,35.48,7.5,45.02,20.36,9.55,12.86,13.89,31.67,13.02,56.44-.86,24.77-6.51,43.19-16.92,55.27-10.42,12.08-25.94,17.75-46.58,17.03-5.14-.18-10.01-.69-14.62-1.52-4.61-.84-8.86-2.25-12.76-4.24-3.9-1.99-7.41-4.66-10.54-8.02-3.13-3.35-5.83-7.65-8.09-12.87l-3.59,1.39,8.06,19.26-.81,23.12c-.23,6.56-5.73,11.69-12.29,11.46ZM118.76,139.11c4.8.17,8.86-.13,12.18-.9,3.32-.77,6.04-2.07,8.17-3.89,2.13-1.82,3.69-4.24,4.68-7.24.99-3,1.56-6.69,1.72-11.07s-.16-7.98-.94-11.04c-.78-3.06-2.17-5.58-4.16-7.55-2-1.97-4.62-3.45-7.88-4.45-3.25-1-7.28-1.58-12.08-1.75-4.89-.17-9.01.11-12.36.83-3.36.73-6.1,2-8.23,3.82-2.13,1.82-3.69,4.24-4.68,7.24-.99,3-1.56,6.69-1.72,11.07s.16,8.12.94,11.23c.78,3.11,2.16,5.64,4.16,7.61,2,1.97,4.64,3.43,7.94,4.39,3.3.96,7.39,1.52,12.28,1.69Z"/>
      <path class="cls-1" d="M280.03,189.73c-25.61.89-44.95-4.65-58.02-16.63-13.07-11.98-20.04-30.36-20.9-55.13-.86-24.77,4.8-43.63,17-56.58,12.2-12.95,31.1-19.87,56.71-20.77,25.69-.9,45.01,4.69,57.96,16.76,12.95,12.07,19.85,30.49,20.72,55.26.86,24.77-4.74,43.58-16.82,56.44-12.08,12.86-30.96,19.74-56.65,20.64ZM278.26,139.06c4.72-.16,8.68-.75,11.89-1.74,3.21-1,5.8-2.48,7.75-4.44s3.32-4.48,4.1-7.55,1.09-6.78.94-11.17-.72-7.95-1.71-10.95c-.99-3-2.53-5.41-4.62-7.24s-4.77-3.12-8.04-3.89c-3.27-.77-7.27-1.08-11.99-.91s-8.83.73-12.09,1.69c-3.26.96-5.86,2.42-7.82,4.38-1.96,1.97-3.32,4.48-4.1,7.54-.78,3.06-1.09,6.79-.94,11.17s.73,8.09,1.72,11.14c.99,3.05,2.53,5.48,4.62,7.3,2.09,1.82,4.79,3.1,8.1,3.83,3.32.73,7.37,1.01,12.18.84Z"/>
      <path class="cls-1" d="M396.73,218.88l-26.79-.94c-6.56-.23-11.69-5.73-11.46-12.29l5.35-153.15c.23-6.56,5.73-11.69,12.29-11.46l26.79.94c6.56.23,11.69,5.73,11.46,12.29h0c10.45-9.33,24.6-13.69,42.46-13.07,20.47.71,35.48,7.5,45.02,20.36,9.55,12.86,13.89,31.67,13.02,56.44-.86,24.77-6.51,43.19-16.92,55.27-10.42,12.08-25.94,17.75-46.58,17.03-5.14-.18-10.01-.69-14.62-1.52-4.61-.84-8.86-2.25-12.76-4.24-3.9-1.99-7.41-4.66-10.54-8.02-3.13-3.35-5.83-7.65-8.09-12.87l-3.59,1.39,8.06,19.26-.81,23.12c-.23,6.56-5.73,11.69-12.29,11.46ZM437.6,139.08c4.8.17,8.86-.13,12.18-.9,3.32-.77,6.04-2.07,8.17-3.89,2.13-1.82,3.69-4.24,4.68-7.24.99-3,1.56-6.69,1.72-11.07.15-4.3-.16-7.98-.94-11.04-.78-3.06-2.17-5.58-4.16-7.55-2-1.97-4.62-3.45-7.88-4.45-3.25-1-7.28-1.58-12.08-1.75-4.89-.17-9.01.11-12.36.83-3.36.73-6.1,2-8.23,3.82-2.13,1.82-3.69,4.24-4.68,7.24-.99,3-1.56,6.69-1.72,11.07-.15,4.38.16,8.12.94,11.23.78,3.11,2.16,5.64,4.16,7.61,2,1.97,4.64,3.43,7.94,4.39,3.3.96,7.39,1.52,12.28,1.69Z"/>
      <path class="cls-1" d="M655.15,116.96c7.66-.27,13.7,6.36,12.84,13.98-1.86,16.53-7.41,29.58-16.66,39.16-11.8,12.22-29.92,18.76-54.35,19.61-25.11.88-44-4.68-56.69-16.68-12.69-12-19.47-30.38-20.33-55.15-.86-24.77,4.61-43.62,16.43-56.56,11.82-12.94,30.28-19.84,55.39-20.72,24.43-.85,42.94,4.41,55.52,15.77,9.84,8.89,16.28,21.42,19.34,37.61,1.43,7.55-4.15,14.62-11.83,14.89l-26.82.94c-5.25.18-10.15-2.9-12.01-7.81-1.13-2.97-2.74-5.28-4.84-6.91-3.73-2.91-9.59-4.22-17.6-3.94-4.38.15-8.09.71-11.14,1.65-3.05.95-5.46,2.4-7.25,4.36-1.79,1.96-3.05,4.47-3.79,7.53-.74,3.06-1.03,6.78-.88,11.16s.7,8.09,1.65,11.14c.95,3.05,2.38,5.48,4.3,7.31,1.92,1.83,4.43,3.11,7.54,3.85,3.1.74,6.85,1.03,11.23.87,8-.28,13.76-2.02,17.28-5.22,1.97-1.8,3.42-4.23,4.34-7.28,1.52-5.03,6.19-8.46,11.44-8.64l26.88-.94Z"/>
      <path class="cls-1" d="M746.76,189.73c-25.61-.89-44.52-7.77-56.72-20.64-12.2-12.87-17.87-31.68-17.01-56.45.86-24.77,7.83-43.19,20.91-55.25,13.07-12.07,32.41-17.66,58.02-16.76,25.69.9,44.58,7.82,56.65,20.77,12.07,12.95,17.68,31.8,16.81,56.57-.86,24.77-7.77,43.15-20.71,55.13-12.94,11.99-32.26,17.53-57.96,16.64ZM748.53,139.06c4.72.16,8.71-.14,11.99-.91,3.27-.77,5.96-2.07,8.04-3.89s3.63-4.24,4.62-7.24,1.56-6.69,1.72-11.07-.16-7.98-.94-11.04c-.78-3.06-2.15-5.58-4.1-7.54s-4.54-3.45-7.75-4.45c-3.21-1-7.18-1.58-11.89-1.74s-8.86.11-12.18.84c-3.31.73-6.02,2-8.1,3.83-2.09,1.82-3.63,4.24-4.62,7.24-.99,3-1.56,6.69-1.72,11.07s.16,8.12.94,11.23c.78,3.11,2.14,5.64,4.1,7.61,1.96,1.97,4.56,3.43,7.82,4.38,3.26.96,7.28,1.52,12.09,1.69Z"/>
      <path class="cls-1" d="M911.31,91.77c-9.18.32-16.23,3.18-21.14,8.58-4.92,5.4-7.2,12.9-6.87,22.51l1.81,51.96c.24,6.89-5.15,12.68-12.05,12.92l-25.58.89c-6.89.24-12.68-5.15-12.92-12.05l-4.16-119.09c-.24-6.89,5.15-12.68,12.05-12.92l19.4-.68c8.89-.31,15.25,8.51,12.14,16.85l-1.46,3.91,3.59,1.39c2.52-5.23,5.44-9.53,8.79-12.9,3.34-3.36,7.32-6.05,11.93-8.07s10-3.47,16.17-4.36c2.88-.42,5.97-.76,9.29-1.05,6.77-.58,12.78,4.32,13.53,11.07l2.95,26.63c.8,7.22-4.71,13.6-11.98,13.86l-15.48.54Z"/>
      <path class="cls-1" d="M989.41,63.18l3.49,1.64c2.45-5.06,5.25-9.16,8.4-12.3,3.15-3.14,6.56-5.57,10.25-7.3,3.69-1.73,7.69-2.85,12.01-3.38,4.32-.52,8.88-.7,13.68-.54,19.12.67,33.12,7.4,41.99,20.19,8.87,12.79,12.88,31.53,12.02,56.21l-2.08,59.54c-.24,6.89-6.02,12.29-12.92,12.05l-25.58-.89c-6.89-.24-12.29-6.02-12.05-12.92l2.07-59.29c.31-8.76-1.29-15.02-4.78-18.77-3.5-3.75-9.12-5.76-16.87-6.03-7.75-.27-13.4,1.35-16.93,4.85-3.54,3.5-5.46,9.64-5.77,18.4l-2.07,59.29c-.24,6.89-6.02,12.29-12.92,12.05l-25.58-.89c-6.89-.24-12.29-6.02-12.05-12.92l4.16-119.09c.24-6.89,6.02-12.29,12.92-12.05l19.4.68c8.89.31,14.62,9.55,10.93,17.65l-1.73,3.8Z"/>
      <path class="cls-1" d="M478.51,232.87h-42.8c-6.91,0-12.5,5.59-12.5,12.49v133.08c0,7.12-2.2,12.88-6.6,17.28-4.41,4.41-10.17,6.61-17.29,6.61h-11.53c-7.12,0-12.87-2.2-17.28-6.61-4.41-4.4-6.61-10.16-6.61-17.28v-133.08c0-6.9-5.59-12.49-12.49-12.49h-42.8c-6.91,0-12.5,5.59-12.5,12.49v140.53c0,12.32,2.06,23.65,6.18,33.98,4.13,10.34,9.91,19.24,17.38,26.7,7.45,7.45,16.35,13.24,26.69,17.36,10.33,4.13,21.66,6.18,33.98,6.18h26.44c12.43,0,23.77-2.06,34.05-6.18,10.28-4.13,19.15-9.91,26.61-17.36,7.45-7.46,13.24-16.35,17.36-26.7,4.13-10.33,6.18-21.66,6.18-33.98v-140.53c0-6.9-5.59-12.49-12.49-12.49Z"/>
      <path class="cls-1" d="M579.91,300.65h85.46c6.9,0,12.49-5.59,12.49-12.5v-42.8c0-6.9-5.59-12.49-12.49-12.49h-149.23c-6.9,0-12.5,5.59-12.5,12.49v212.27c0,6.9,5.6,12.49,12.5,12.49h149.23c6.9,0,12.49-5.59,12.49-12.49v-42.8c0-6.91-5.59-12.5-12.49-12.5h-85.46c-2.34,0-4.46-.95-5.99-2.49-1.54-1.53-2.49-3.65-2.49-5.99,0-4.68,3.79-8.47,8.47-8.47h85.46c6.9,0,12.49-5.59,12.49-12.49v-42.81c0-6.9-5.59-12.49-12.49-12.49h-85.46c-2.34,0-4.46-.95-5.99-2.49-1.54-1.53-2.49-3.65-2.49-5.99,0-4.68,3.79-8.47,8.47-8.47Z"/>
      <path class="cls-1" d="M880.12,370.64c-2.94-8.36-8.14-15.99-15.59-22.88-7.46-6.88-17.66-13.02-30.59-18.39-12.93-5.36-29.4-9.85-49.4-13.47-2.38-.44-5.06-.99-8.05-1.6-2.99-.63-5.84-1.39-8.55-2.29-2.72-.9-5-1.92-6.87-3.05-1.86-1.12-2.8-2.36-2.8-3.73,0-1.91,2.01-3.69,6.02-5.33,4-1.64,10.14-2.45,18.39-2.45,7,0,14.68.64,23.04,1.95,8.36,1.29,16.86,2.97,25.51,5,8.65,2.03,17.17,4.32,25.59,6.86,2.29.69,4.53,1.39,6.71,2.08,8.04,2.57,16.24-3.46,16.24-11.91v-47.41c0-5.74-3.89-10.73-9.45-12.12-3.78-.95-7.75-1.9-11.9-2.83-7.8-1.75-15.94-3.33-24.41-4.74-8.47-1.42-17.03-2.57-25.68-3.47-8.63-.91-17.03-1.35-25.16-1.35-15.48,0-29,1.72-40.59,5.16-11.58,3.45-21.23,8.42-28.98,14.91-7.73,6.5-13.52,14.43-17.36,23.82-3.84,9.37-5.76,20.05-5.76,32.02,0,9.61,1.47,18.62,4.41,27.03,2.93,8.41,8.17,16.07,15.68,22.97,7.51,6.88,17.73,13.02,30.67,18.39,12.94,5.36,29.41,9.85,49.4,13.46,2.27.46,4.89,1,7.88,1.61,2.99.63,5.85,1.39,8.56,2.29,2.71.9,5,1.92,6.86,3.05,1.87,1.12,2.8,2.36,2.8,3.72,0,1.93-2,3.71-6.01,5.34-4.01,1.64-10.09,2.45-18.21,2.45-7.01,0-14.72-.64-23.13-1.95-8.42-1.29-16.96-2.97-25.59-5-8.65-2.03-17.14-4.35-25.51-6.95-2.3-.71-4.56-1.43-6.76-2.13-8.05-2.6-16.29,3.44-16.29,11.9v47.56c0,5.74,3.9,10.73,9.46,12.12,3.77.95,7.75,1.9,11.9,2.83,7.8,1.75,15.94,3.33,24.41,4.74,8.47,1.42,17.06,2.57,25.75,3.47,8.71.9,17.12,1.35,25.26,1.35,15.47,0,29-1.72,40.58-5.16,11.58-3.45,21.21-8.42,28.89-14.91,7.68-6.5,13.45-14.43,17.29-23.82,3.84-9.37,5.76-20.05,5.76-32.02,0-9.72-1.48-18.76-4.41-27.12Z"/>
      <path class="cls-1" d="M1078.87,232.87h-169.23c-6.9,0-12.49,5.59-12.49,12.49v42.8c0,6.91,5.59,12.5,12.49,12.5h42.08c4.68,0,8.47,3.79,8.47,8.47v148.15c0,6.91,5.59,12.5,12.49,12.5h42.8c6.9,0,12.5-5.59,12.5-12.5v-148.15c0-4.68,3.79-8.47,8.47-8.47h42.41c6.9,0,12.49-5.59,12.49-12.5v-42.8c0-6.9-5.59-12.49-12.49-12.49Z"/>
    </g>
  </g>
</svg>